<svg width="643" height="449" viewBox="0 0 643 449" fill="none" xmlns="http://www.w3.org/2000/svg">
<g clip-path="url(#clip0_32_389)">
<path d="M525.185 281.589H111.055C108.228 281.585 105.518 280.466 103.519 278.475C101.52 276.484 100.395 273.785 100.392 270.97V16.6644C100.394 14.6018 101.218 12.6245 102.683 11.166C104.147 9.70755 106.133 8.88714 108.204 8.88477H527.901C530.008 8.88715 532.028 9.72173 533.517 11.2054C535.007 12.6891 535.845 14.7007 535.848 16.7989V270.97C535.844 273.785 534.72 276.484 532.721 278.475C530.722 280.466 528.012 281.585 525.185 281.589Z" fill="#F2F2F2"/>
<path d="M510.078 266.551H124.119C118.462 266.551 113.859 262.258 113.859 256.982V35.5296C113.859 31.6167 117.27 28.4331 121.462 28.4331H512.609C516.871 28.4331 520.338 31.6691 520.338 35.6465V256.982C520.338 262.258 515.735 266.551 510.078 266.551Z" fill="white"/>
<path d="M535.699 16.057H100.242V10.6508C100.247 7.82614 101.376 5.11844 103.382 3.12172C105.388 1.12501 108.108 0.00233364 110.944 0H524.997C527.834 0.00232004 530.553 1.12499 532.56 3.12171C534.566 5.11843 535.695 7.82614 535.699 10.6508V16.057Z" fill="#CCCCCC"/>
<path d="M119.691 10.8011C121.22 10.8011 122.459 9.56693 122.459 8.04448C122.459 6.52203 121.22 5.28784 119.691 5.28784C118.162 5.28784 116.923 6.52203 116.923 8.04448C116.923 9.56693 118.162 10.8011 119.691 10.8011Z" fill="white"/>
<path d="M130.198 10.8011C131.727 10.8011 132.966 9.56693 132.966 8.04448C132.966 6.52203 131.727 5.28784 130.198 5.28784C128.669 5.28784 127.43 6.52203 127.43 8.04448C127.43 9.56693 128.669 10.8011 130.198 10.8011Z" fill="white"/>
<path d="M140.705 10.8011C142.234 10.8011 143.473 9.56693 143.473 8.04448C143.473 6.52203 142.234 5.28784 140.705 5.28784C139.176 5.28784 137.937 6.52203 137.937 8.04448C137.937 9.56693 139.176 10.8011 140.705 10.8011Z" fill="white"/>
<path d="M467.595 229.41H168.495C165.496 229.406 162.622 228.219 160.502 226.107C158.382 223.996 157.189 221.133 157.186 218.147V74.5342C157.188 72.3011 158.08 70.1601 159.666 68.581C161.251 67.0019 163.401 66.1137 165.643 66.1111H470.311C472.59 66.1137 474.774 67.0161 476.385 68.6204C477.996 70.2248 478.902 72.3999 478.904 74.6687V218.147C478.901 221.133 477.708 223.996 475.588 226.107C473.468 228.219 470.594 229.406 467.595 229.41ZM165.643 67.3982C163.744 67.4004 161.922 68.1529 160.579 69.4907C159.236 70.8285 158.48 72.6423 158.478 74.5342V218.147C158.481 220.792 159.537 223.327 161.415 225.197C163.293 227.068 165.839 228.119 168.495 228.122H467.595C470.251 228.119 472.797 227.068 474.675 225.197C476.553 223.327 477.609 220.792 477.612 218.147V74.6687C477.61 72.7412 476.84 70.8931 475.471 69.5301C474.103 68.1671 472.247 67.4004 470.311 67.3982H165.643Z" fill="#CCCCCC"/>
<path d="M178.834 218.147H457.256C459.998 218.147 462.628 217.062 464.567 215.131C466.506 213.2 467.595 210.581 467.595 207.85V87.7953C467.595 85.0643 466.506 82.4453 464.567 80.5142C462.628 78.5831 459.998 77.4983 457.256 77.4983H178.834C176.092 77.4983 173.462 78.5831 171.523 80.5142C169.584 82.4453 168.495 85.0643 168.495 87.7953V207.85C168.495 210.581 169.584 213.2 171.523 215.131C173.462 217.062 176.092 218.147 178.834 218.147Z" fill="#F2F2F2"/>
<path d="M210.447 112.427C213.66 112.427 216.264 109.834 216.264 106.635C216.264 103.436 213.66 100.843 210.447 100.843C207.235 100.843 204.631 103.436 204.631 106.635C204.631 109.834 207.235 112.427 210.447 112.427Z" fill="#CCCCCC"/>
<path d="M210.447 134.308C213.66 134.308 216.264 131.715 216.264 128.516C216.264 125.317 213.66 122.724 210.447 122.724C207.235 122.724 204.631 125.317 204.631 128.516C204.631 131.715 207.235 134.308 210.447 134.308Z" fill="#CCCCCC"/>
<path d="M210.447 156.189C213.66 156.189 216.264 153.596 216.264 150.397C216.264 147.198 213.66 144.605 210.447 144.605C207.235 144.605 204.631 147.198 204.631 150.397C204.631 153.596 207.235 156.189 210.447 156.189Z" fill="#CCCCCC"/>
<path d="M210.447 178.07C213.66 178.07 216.264 175.477 216.264 172.278C216.264 169.079 213.66 166.486 210.447 166.486C207.235 166.486 204.631 169.079 204.631 172.278C204.631 175.477 207.235 178.07 210.447 178.07Z" fill="#CCCCCC"/>
<path d="M430.812 107.278H239.528C239.356 107.278 239.192 107.211 239.071 107.09C238.95 106.969 238.882 106.805 238.882 106.635C238.882 106.464 238.95 106.3 239.071 106.18C239.192 106.059 239.356 105.991 239.528 105.991H430.812C430.984 105.991 431.148 106.059 431.269 106.18C431.39 106.3 431.458 106.464 431.458 106.635C431.458 106.805 431.39 106.969 431.269 107.09C431.148 107.211 430.984 107.278 430.812 107.278Z" fill="#CCCCCC"/>
<path d="M430.812 129.159H239.528C239.356 129.159 239.192 129.092 239.071 128.971C238.95 128.85 238.882 128.687 238.882 128.516C238.882 128.345 238.95 128.182 239.071 128.061C239.192 127.94 239.356 127.872 239.528 127.872H430.812C430.984 127.872 431.148 127.94 431.269 128.061C431.39 128.182 431.458 128.345 431.458 128.516C431.458 128.687 431.39 128.85 431.269 128.971C431.148 129.092 430.984 129.159 430.812 129.159Z" fill="#CCCCCC"/>
<path d="M430.812 151.041H239.528C239.356 151.041 239.192 150.973 239.071 150.852C238.95 150.731 238.882 150.568 238.882 150.397C238.882 150.226 238.95 150.063 239.071 149.942C239.192 149.821 239.356 149.753 239.528 149.753H430.812C430.984 149.753 431.148 149.821 431.269 149.942C431.39 150.063 431.458 150.226 431.458 150.397C431.458 150.568 431.39 150.731 431.269 150.852C431.148 150.973 430.984 151.041 430.812 151.041Z" fill="#CCCCCC"/>
<path d="M430.812 172.922H239.528C239.356 172.922 239.192 172.854 239.071 172.733C238.95 172.612 238.882 172.449 238.882 172.278C238.882 172.107 238.95 171.944 239.071 171.823C239.192 171.702 239.356 171.635 239.528 171.635H430.812C430.984 171.635 431.148 171.702 431.269 171.823C431.39 171.944 431.458 172.107 431.458 172.278C431.458 172.449 431.39 172.612 431.269 172.733C431.148 172.854 430.984 172.922 430.812 172.922Z" fill="#CCCCCC"/>
<path d="M275.717 194.803H256.976C256.119 194.802 255.298 194.462 254.692 193.859C254.087 193.256 253.746 192.438 253.745 191.585V174.209C253.746 173.356 254.087 172.538 254.692 171.935C255.298 171.331 256.119 170.992 256.976 170.991H275.717C276.573 170.992 277.395 171.331 278 171.935C278.606 172.538 278.947 173.356 278.948 174.209V191.585C278.947 192.438 278.606 193.256 278 193.859C277.395 194.462 276.573 194.802 275.717 194.803Z" fill="#00A4E4"/>
<path d="M317.722 194.803H298.981C298.125 194.802 297.303 194.462 296.697 193.859C296.092 193.256 295.751 192.438 295.75 191.585V152.328C295.751 151.475 296.092 150.657 296.697 150.053C297.303 149.45 298.125 149.111 298.981 149.11H317.722C318.579 149.111 319.4 149.45 320.006 150.053C320.611 150.657 320.952 151.475 320.953 152.328V191.585C320.952 192.438 320.611 193.256 320.006 193.859C319.4 194.462 318.579 194.802 317.722 194.803Z" fill="#00A4E4"/>
<path d="M360.373 194.803H341.633C340.776 194.802 339.955 194.462 339.349 193.859C338.743 193.256 338.402 192.438 338.401 191.585V130.447C338.402 129.593 338.743 128.776 339.349 128.172C339.955 127.569 340.776 127.23 341.633 127.229H360.373C361.23 127.23 362.051 127.569 362.657 128.172C363.263 128.776 363.603 129.593 363.604 130.447V191.585C363.603 192.438 363.263 193.256 362.657 193.859C362.051 194.462 361.23 194.802 360.373 194.803Z" fill="#00A4E4"/>
<path d="M404.317 194.803H385.576C384.719 194.802 383.898 194.462 383.292 193.859C382.687 193.256 382.346 192.438 382.345 191.585V109.209C382.346 108.356 382.687 107.538 383.292 106.935C383.898 106.332 384.719 105.992 385.576 105.991H404.317C405.173 105.992 405.995 106.332 406.6 106.935C407.206 107.538 407.547 108.356 407.548 109.209V191.585C407.547 192.438 407.206 193.256 406.6 193.859C405.995 194.462 405.173 194.802 404.317 194.803Z" fill="#00A4E4"/>
<path d="M430.812 194.803H239.528C239.356 194.803 239.192 194.735 239.071 194.614C238.95 194.494 238.882 194.33 238.882 194.159C238.882 193.989 238.95 193.825 239.071 193.704C239.192 193.583 239.356 193.516 239.528 193.516H430.812C430.984 193.516 431.148 193.583 431.269 193.704C431.39 193.825 431.458 193.989 431.458 194.159C431.458 194.33 431.39 194.494 431.269 194.614C431.148 194.735 430.984 194.803 430.812 194.803Z" fill="#00A4E4"/>
<path d="M514.853 314.858C515.377 314.068 516.068 313.403 516.878 312.908C517.688 312.413 518.597 312.102 519.54 311.995C520.484 311.888 521.44 311.988 522.341 312.289C523.242 312.59 524.065 313.084 524.754 313.736L545.275 303.188L543.999 315.071L524.707 323.265C523.531 324.344 521.997 324.956 520.398 324.985C518.799 325.013 517.245 324.457 516.03 323.42C514.816 322.384 514.025 320.94 513.808 319.362C513.591 317.783 513.963 316.181 514.853 314.858Z" fill="#FFB8B8"/>
<path d="M532.51 319.289C532.044 318.925 531.701 318.429 531.526 317.866L529.893 312.615C529.718 312.046 529.722 311.437 529.906 310.871C530.089 310.304 530.443 309.807 530.919 309.448L547.551 296.937L565.565 263.657C566.32 262.689 567.258 261.879 568.327 261.272C569.396 260.665 570.574 260.275 571.795 260.122C573.016 259.969 574.255 260.057 575.441 260.38C576.628 260.704 577.739 261.258 578.71 262.009C579.682 262.761 580.496 263.695 581.105 264.76C581.714 265.824 582.106 266.998 582.26 268.214C582.413 269.429 582.325 270.663 581.999 271.845C581.674 273.026 581.118 274.132 580.364 275.1L570.115 296.64C567.006 303.178 561.618 308.369 554.953 311.247L535.461 319.667C535.086 319.828 534.681 319.909 534.273 319.905C533.864 319.901 533.461 319.811 533.09 319.641C532.883 319.547 532.689 319.429 532.51 319.289Z" fill="#00A4E4"/>
<path d="M580.817 249.767C589.583 249.767 596.689 242.691 596.689 233.961C596.689 225.231 589.583 218.154 580.817 218.154C572.051 218.154 564.945 225.231 564.945 233.961C564.945 242.691 572.051 249.767 580.817 249.767Z" fill="#FFB8B8"/>
<path d="M574.378 441.313L566.456 441.313L562.688 410.88L574.381 410.881L574.378 441.313Z" fill="#FFB8B8"/>
<path d="M560.796 439.058H576.076V448.639H551.176C551.176 447.381 551.425 446.135 551.908 444.972C552.392 443.81 553.1 442.754 553.994 441.864C554.887 440.975 555.948 440.269 557.115 439.787C558.282 439.306 559.533 439.058 560.796 439.058Z" fill="#2F2E41"/>
<path d="M600.227 441.315L592.305 441.314L588.537 410.881L600.23 410.882L600.227 441.315Z" fill="#FFB8B8"/>
<path d="M586.645 439.059H601.925V448.64H577.025C577.025 447.382 577.274 446.136 577.757 444.974C578.241 443.811 578.95 442.755 579.843 441.865C580.736 440.976 581.797 440.27 582.964 439.789C584.131 439.307 585.382 439.059 586.645 439.059Z" fill="#2F2E41"/>
<path d="M600.806 433.592L591.522 433.592C590.883 433.591 590.262 433.38 589.754 432.993C589.247 432.606 588.882 432.063 588.714 431.449L575.351 382.087C575.33 382.01 575.281 381.944 575.214 381.901C575.147 381.857 575.066 381.841 574.987 381.854C574.908 381.866 574.836 381.908 574.786 381.97C574.736 382.032 574.711 382.111 574.716 382.19L577.416 429.004C577.44 429.418 577.374 429.833 577.223 430.219C577.072 430.605 576.84 430.955 576.542 431.245C576.244 431.534 575.887 431.756 575.495 431.896C575.103 432.036 574.686 432.091 574.271 432.056L563.836 431.19C563.167 431.133 562.539 430.848 562.056 430.383C561.574 429.918 561.268 429.302 561.189 428.638L551.682 330.338L555.36 332.536L589.823 326.709L603.689 430.313C603.744 430.722 603.71 431.138 603.59 431.533C603.471 431.928 603.267 432.293 602.994 432.604C602.721 432.914 602.385 433.163 602.008 433.333C601.63 433.504 601.221 433.592 600.806 433.592Z" fill="#2F2E41"/>
<path d="M563.208 340.713C559.406 340.683 555.681 339.639 552.421 337.69C551.919 337.394 551.518 336.953 551.272 336.426C551.026 335.899 550.945 335.31 551.041 334.737C552.253 327.345 558.591 289.425 564.358 268.753C566.707 260.333 571.901 255.798 579.795 255.275C591.341 254.52 601.605 263.517 602.674 275.354C604.559 296.236 596.901 325.906 593.52 337.693C593.389 338.148 593.148 338.564 592.818 338.905C592.488 339.245 592.079 339.5 591.626 339.647C591.174 339.793 590.693 339.827 590.225 339.745C589.756 339.663 589.315 339.468 588.94 339.177L582.05 333.839C581.626 333.517 581.102 333.352 580.569 333.374C580.036 333.396 579.528 333.604 579.132 333.961C573.325 339.119 567.808 340.714 563.208 340.713Z" fill="#00A4E4"/>
<path opacity="0.2" d="M585.994 285.572L591.81 310.028L583.407 330.621L589.225 310.672L585.994 285.572Z" fill="#00A4E4"/>
<path d="M589.873 246.959C591.285 246.985 592.688 246.732 594.002 246.215C594.579 245.994 595.179 245.811 595.756 245.59C600.849 243.63 604.205 238.228 604.325 232.792C604.446 227.355 601.619 222.079 597.421 218.601C593.223 215.123 587.786 213.338 582.342 212.925C576.477 212.48 569.873 213.961 566.596 218.824C565.723 220.119 565.113 221.69 565.63 223.253C565.785 223.725 566.061 224.148 566.432 224.48C567.895 225.777 569.354 224.802 570.846 224.716C572.897 224.597 574.739 226.25 575.401 228.187C576.063 230.123 575.771 232.255 575.236 234.23C574.829 235.419 574.572 236.653 574.472 237.905C574.429 238.533 574.547 239.161 574.816 239.73C575.085 240.3 575.496 240.791 576.009 241.158C577.29 241.93 578.973 241.483 580.255 240.713C581.538 239.943 582.646 238.872 584.031 238.306C585.416 237.739 587.276 237.865 588.082 239.121C588.338 239.579 588.512 240.077 588.594 240.594C589.317 243.873 589.151 243.68 589.873 246.959Z" fill="#2F2E41"/>
<path d="M565.272 419.236L465.884 384.766C464.179 384.172 462.78 382.929 461.993 381.31C461.207 379.69 461.098 377.825 461.69 376.126L487.517 302.272C487.954 301.027 488.869 300.007 490.06 299.433C491.252 298.859 492.623 298.78 493.874 299.212L596.621 334.847C597.892 335.289 598.935 336.216 599.521 337.423C600.107 338.63 600.188 340.019 599.747 341.286L573.948 415.059C573.352 416.757 572.104 418.151 570.477 418.934C568.851 419.717 566.979 419.825 565.272 419.236Z" fill="#E6E6E6"/>
<path d="M474.366 380.522L561.273 410.663C562.928 411.237 564.744 411.133 566.322 410.373C567.9 409.614 569.11 408.261 569.686 406.613L590.542 346.976C591.118 345.328 591.013 343.52 590.251 341.948C589.488 340.377 588.13 339.172 586.475 338.598L499.567 308.457C497.912 307.883 496.096 307.987 494.518 308.746C492.94 309.506 491.73 310.859 491.154 312.507L470.299 372.143C470.013 372.959 469.892 373.823 469.942 374.686C469.992 375.549 470.212 376.393 470.59 377.171C470.967 377.949 471.495 378.646 472.143 379.221C472.791 379.795 473.546 380.238 474.366 380.522Z" fill="white"/>
<path d="M496.189 338.622L491.885 337.129C491.652 337.048 491.46 336.878 491.353 336.656C491.245 336.435 491.23 336.18 491.311 335.947L492.81 331.661C492.892 331.429 493.063 331.238 493.285 331.131C493.508 331.024 493.764 331.009 493.997 331.089L498.301 332.582C498.535 332.663 498.726 332.833 498.834 333.055C498.941 333.277 498.956 333.532 498.875 333.764L497.376 338.051C497.295 338.283 497.124 338.474 496.901 338.581C496.679 338.688 496.423 338.703 496.189 338.622Z" fill="#6C63FF"/>
<path d="M492.306 349.727L488.002 348.234C487.768 348.153 487.577 347.983 487.469 347.762C487.362 347.54 487.347 347.285 487.428 347.052L488.927 342.766C489.008 342.534 489.179 342.343 489.402 342.236C489.624 342.129 489.88 342.114 490.114 342.195L494.418 343.687C494.651 343.769 494.843 343.939 494.95 344.16C495.058 344.382 495.073 344.637 494.992 344.87L493.493 349.156C493.411 349.388 493.24 349.579 493.018 349.686C492.795 349.793 492.539 349.808 492.306 349.727Z" fill="#3F3D56"/>
<path d="M488.422 360.833L484.118 359.34C483.885 359.259 483.693 359.089 483.586 358.867C483.478 358.645 483.463 358.39 483.544 358.158L485.043 353.872C485.125 353.639 485.295 353.449 485.518 353.341C485.741 353.234 485.997 353.219 486.23 353.3L490.534 354.793C490.768 354.874 490.959 355.044 491.067 355.266C491.174 355.487 491.189 355.742 491.108 355.975L489.609 360.261C489.528 360.494 489.357 360.684 489.134 360.791C488.912 360.899 488.656 360.913 488.422 360.833Z" fill="#CCCCCC"/>
<path d="M525.111 346.249L504.373 339.057C504.257 339.017 504.15 338.955 504.059 338.874C503.967 338.793 503.892 338.694 503.839 338.585C503.785 338.475 503.754 338.355 503.747 338.233C503.74 338.112 503.757 337.989 503.797 337.874C503.837 337.759 503.9 337.652 503.982 337.561C504.063 337.47 504.162 337.396 504.273 337.343C504.383 337.29 504.503 337.259 504.626 337.252C504.748 337.246 504.871 337.263 504.986 337.303L525.724 344.496C525.84 344.536 525.947 344.598 526.039 344.679C526.13 344.76 526.205 344.858 526.259 344.968C526.312 345.078 526.343 345.197 526.35 345.319C526.358 345.441 526.341 345.563 526.3 345.679C526.26 345.794 526.197 345.9 526.115 345.991C526.034 346.082 525.935 346.157 525.824 346.21C525.714 346.263 525.594 346.293 525.472 346.3C525.349 346.307 525.227 346.29 525.111 346.249Z" fill="#CCCCCC"/>
<path d="M521.227 357.355L500.489 350.163C500.256 350.082 500.064 349.912 499.957 349.69C499.849 349.468 499.834 349.213 499.916 348.98C499.997 348.748 500.168 348.557 500.39 348.45C500.613 348.343 500.869 348.328 501.103 348.409L521.84 355.601C521.956 355.641 522.063 355.704 522.155 355.785C522.246 355.866 522.321 355.964 522.375 356.074C522.428 356.184 522.459 356.303 522.466 356.425C522.474 356.547 522.456 356.669 522.416 356.784C522.376 356.899 522.313 357.006 522.231 357.097C522.15 357.188 522.051 357.262 521.941 357.315C521.83 357.368 521.71 357.399 521.588 357.406C521.465 357.413 521.343 357.395 521.227 357.355Z" fill="#CCCCCC"/>
<path d="M517.344 368.46L496.606 361.268C496.372 361.187 496.181 361.017 496.073 360.795C495.966 360.573 495.951 360.318 496.032 360.086C496.113 359.853 496.284 359.662 496.507 359.555C496.729 359.448 496.986 359.433 497.219 359.514L517.957 366.707C518.19 366.788 518.382 366.958 518.49 367.179C518.597 367.401 518.612 367.656 518.531 367.889C518.449 368.121 518.279 368.312 518.056 368.419C517.833 368.526 517.577 368.541 517.344 368.46Z" fill="#CCCCCC"/>
<path d="M572.531 374.477C572.682 374.116 572.824 373.749 572.955 373.375C574.66 368.501 574.35 363.152 572.094 358.506C569.839 353.859 565.822 350.295 560.928 348.597L554.112 368.089L572.531 374.477Z" fill="#6C63FF"/>
<path d="M552.129 369.275L558.946 349.783C555.343 348.534 551.453 348.361 547.753 349.288C544.054 350.214 540.708 352.198 538.127 354.995C535.547 357.793 533.845 361.281 533.231 365.031C532.618 368.78 533.12 372.626 534.675 376.095C536.23 379.563 538.771 382.503 541.983 384.551C545.196 386.599 548.94 387.665 552.754 387.619C556.568 387.574 560.286 386.417 563.448 384.292C566.61 382.168 569.078 379.168 570.549 375.663L552.129 369.275Z" fill="#00A4E4"/>
<path d="M576.532 341.314C576.455 340.371 576.586 339.423 576.917 338.536C577.248 337.649 577.77 336.845 578.446 336.181C579.123 335.517 579.937 335.008 580.832 334.691C581.727 334.374 582.681 334.257 583.627 334.347L593.239 313.436L599.598 323.57L589.496 341.874C589.239 343.446 588.411 344.87 587.171 345.875C585.93 346.88 584.362 347.397 582.764 347.328C581.166 347.259 579.649 346.609 578.5 345.501C577.352 344.392 576.651 342.903 576.532 341.314Z" fill="#FFB8B8"/>
<path d="M593.172 333.95C592.58 333.95 592.002 333.771 591.515 333.435L586.977 330.306C586.486 329.966 586.112 329.485 585.906 328.926C585.699 328.368 585.669 327.76 585.821 327.184L591.156 307.118L584.707 269.86C584.7 268.634 584.935 267.418 585.4 266.283C585.864 265.148 586.549 264.115 587.415 263.243C588.281 262.371 589.311 261.678 590.446 261.203C591.581 260.728 592.799 260.48 594.03 260.474C595.261 260.469 596.481 260.704 597.621 261.168C598.76 261.632 599.797 262.316 600.671 263.179C601.546 264.042 602.24 265.069 602.716 266.2C603.192 267.331 603.439 268.544 603.443 269.77L608.727 293.017C610.332 300.073 609.309 307.469 605.848 313.829L595.727 332.434C595.533 332.791 595.265 333.104 594.94 333.352C594.616 333.599 594.243 333.776 593.846 333.871C593.625 333.924 593.399 333.95 593.172 333.95Z" fill="#00A4E4"/>
<path d="M642.354 449H519.57C519.398 449 519.234 448.932 519.113 448.812C518.992 448.691 518.924 448.527 518.924 448.356C518.924 448.186 518.992 448.022 519.113 447.901C519.234 447.781 519.398 447.713 519.57 447.713H642.354C642.525 447.713 642.69 447.781 642.811 447.901C642.932 448.022 643 448.186 643 448.356C643 448.527 642.932 448.691 642.811 448.812C642.69 448.932 642.525 449 642.354 449Z" fill="#CCCCCC"/>
<path d="M317.003 440.993L324.926 440.992L328.694 410.56H317.001L317.003 440.993Z" fill="#A0616A"/>
<path d="M314.982 438.417L330.585 438.416C331.89 438.416 333.184 438.672 334.39 439.17C335.597 439.668 336.693 440.397 337.616 441.316C338.54 442.236 339.272 443.327 339.772 444.529C340.271 445.73 340.529 447.018 340.529 448.318V448.64L314.983 448.641L314.982 438.417Z" fill="#2F2E41"/>
<path d="M285.337 440.993L293.26 440.992L297.029 410.56H285.336L285.337 440.993Z" fill="#A0616A"/>
<path d="M283.317 438.417L298.919 438.416C300.225 438.416 301.519 438.672 302.725 439.17C303.932 439.668 305.028 440.397 305.951 441.316C306.874 442.236 307.607 443.327 308.106 444.529C308.606 445.73 308.863 447.018 308.863 448.318V448.64L283.317 448.641L283.317 438.417Z" fill="#2F2E41"/>
<path d="M318.584 230.303C327.35 230.303 334.456 223.226 334.456 214.497C334.456 205.767 327.35 198.69 318.584 198.69C309.818 198.69 302.712 205.767 302.712 214.497C302.712 223.226 309.818 230.303 318.584 230.303Z" fill="#A0616A"/>
<path d="M329.258 434.425H314.556C314.171 434.424 313.79 434.348 313.435 434.201C313.079 434.053 312.757 433.836 312.487 433.564C312.216 433.291 312.003 432.968 311.859 432.612C311.715 432.257 311.643 431.877 311.648 431.493L312.502 361.969C312.505 361.722 312.413 361.483 312.245 361.302C312.077 361.12 311.845 361.01 311.598 360.993C311.35 360.977 311.106 361.055 310.915 361.213C310.724 361.37 310.6 361.595 310.571 361.84L302.014 431.879C301.928 432.581 301.586 433.227 301.055 433.696C300.523 434.165 299.837 434.424 299.127 434.425H284.284C283.883 434.425 283.486 434.342 283.119 434.182C282.751 434.022 282.421 433.788 282.149 433.495C281.877 433.202 281.668 432.856 281.537 432.479C281.405 432.101 281.353 431.701 281.385 431.303L291.186 306.404L291.453 306.375L338.388 301.327L332.163 431.666C332.128 432.41 331.807 433.112 331.266 433.625C330.725 434.139 330.005 434.425 329.258 434.425Z" fill="#2F2E41"/>
<path d="M291.758 314.071C291.004 314.07 290.28 313.776 289.739 313.253C289.198 312.729 288.883 312.017 288.86 311.266C288.604 303.369 288.165 276.043 293.269 255.981C294.661 250.501 297.788 245.612 302.186 242.038C306.584 238.464 312.021 236.394 317.691 236.134C323.273 235.831 328.809 237.285 333.513 240.291C338.218 243.298 341.853 247.703 343.902 252.882C352.481 274.572 360.586 301.307 350.481 305.501C337.236 310.996 302.321 313.446 291.936 314.066C291.876 314.069 291.817 314.071 291.758 314.071Z" fill="#00A4E4"/>
<path d="M352.42 198.521C352.67 198.776 352.939 199.012 353.225 199.225L351.559 231.098L344.629 234.631L348.617 245.744L361.496 240.676C362.536 240.267 363.415 239.532 364.001 238.583C364.587 237.634 364.847 236.521 364.744 235.411L361.37 199.256C362.474 198.436 363.301 197.3 363.741 196.001C364.181 194.701 364.214 193.298 363.834 191.979C363.454 190.661 362.68 189.488 361.615 188.618C360.55 187.749 359.244 187.222 357.871 187.109C356.498 186.996 355.123 187.303 353.929 187.987C352.735 188.671 351.779 189.701 351.187 190.94C350.596 192.179 350.397 193.568 350.617 194.922C350.837 196.276 351.466 197.532 352.42 198.521Z" fill="#A0616A"/>
<path d="M351.691 232.284L356.566 246.081C356.705 246.474 356.757 246.892 356.719 247.306C356.681 247.72 356.553 248.122 356.346 248.483C356.138 248.844 355.854 249.156 355.514 249.398C355.174 249.64 354.786 249.807 354.376 249.886L340 252.658C337.979 253.354 335.764 253.223 333.84 252.294C331.915 251.365 330.44 249.715 329.736 247.704C329.032 245.693 329.157 243.487 330.085 241.568C331.012 239.649 332.666 238.175 334.683 237.469L347.591 230.684C347.96 230.49 348.368 230.377 348.785 230.354C349.202 230.331 349.62 230.397 350.009 230.549C350.398 230.701 350.749 230.935 351.04 231.234C351.33 231.533 351.552 231.891 351.691 232.284Z" fill="#00A4E4"/>
<path d="M283.67 198.521C283.42 198.776 283.151 199.012 282.865 199.225L284.531 231.098L291.461 234.631L287.473 245.744L274.594 240.676C273.554 240.267 272.675 239.532 272.089 238.583C271.503 237.634 271.243 236.521 271.346 235.411L274.72 199.256C273.616 198.436 272.789 197.3 272.349 196.001C271.909 194.701 271.877 193.298 272.256 191.979C272.636 190.661 273.41 189.488 274.475 188.618C275.54 187.749 276.846 187.222 278.219 187.109C279.592 186.996 280.967 187.303 282.161 187.987C283.355 188.671 284.311 189.701 284.903 190.94C285.495 192.179 285.694 193.568 285.473 194.922C285.253 196.276 284.624 197.532 283.67 198.521Z" fill="#A0616A"/>
<path d="M286.081 230.549C286.47 230.397 286.888 230.33 287.305 230.354C287.722 230.377 288.13 230.49 288.499 230.684L301.407 237.469C303.424 238.175 305.078 239.649 306.005 241.568C306.932 243.487 307.058 245.693 306.354 247.704C305.65 249.715 304.175 251.365 302.25 252.294C300.326 253.223 298.111 253.354 296.09 252.658L281.714 249.886C281.304 249.807 280.916 249.64 280.576 249.398C280.236 249.156 279.952 248.844 279.744 248.483C279.536 248.122 279.409 247.721 279.371 247.306C279.333 246.892 279.385 246.474 279.524 246.081L284.399 232.284C284.538 231.891 284.76 231.533 285.05 231.234C285.34 230.934 285.692 230.701 286.081 230.549Z" fill="#00A4E4"/>
<path d="M324.749 217.191C324.666 215.175 325.174 213.178 326.211 211.445C327.249 209.711 328.771 208.316 330.591 207.43C335.416 204.95 338.447 199.659 337.119 194.828C335.419 188.644 326.967 184.633 320.119 186.761C318.266 187.416 316.479 188.243 314.781 189.232L310.307 191.62C308.396 192.573 306.553 193.656 304.792 194.862C302.154 196.798 300.087 199.403 298.806 202.407C297.525 205.41 297.077 208.701 297.509 211.936C298.39 218.222 302.524 223.988 308.183 227.935C310.347 229.546 312.847 230.652 315.498 231.173C318.21 231.618 321.23 231.112 323.213 229.432C326.313 226.807 325.993 222.411 324.99 218.739C324.858 218.232 324.777 217.714 324.749 217.191Z" fill="#2F2E41"/>
<path d="M378.691 449H255.907C255.736 449 255.572 448.932 255.451 448.812C255.329 448.691 255.261 448.527 255.261 448.356C255.261 448.186 255.329 448.022 255.451 447.901C255.572 447.781 255.736 447.713 255.907 447.713H378.691C378.863 447.713 379.027 447.781 379.148 447.901C379.27 448.022 379.338 448.186 379.338 448.356C379.338 448.527 379.27 448.691 379.148 448.812C379.027 448.932 378.863 449 378.691 449Z" fill="#CCCCCC"/>
<path d="M178.301 331.597L76.9872 372.989C75.2472 373.698 73.296 373.69 71.5618 372.968C69.8275 372.245 68.4517 370.868 67.7362 369.136L36.7224 293.851C36.2011 292.581 36.2067 291.158 36.738 289.892C37.2694 288.627 38.283 287.623 39.5565 287.101L144.296 244.31C145.593 243.782 147.047 243.788 148.339 244.326C149.632 244.864 150.657 245.891 151.19 247.181L182.17 322.384C182.882 324.117 182.874 326.06 182.149 327.787C181.423 329.514 180.04 330.884 178.301 331.597Z" fill="#E6E6E6"/>
<path d="M80.657 363.857L169.249 327.663C170.936 326.974 172.279 325.645 172.983 323.97C173.686 322.295 173.693 320.409 173.001 318.729L147.957 257.937C147.614 257.105 147.111 256.348 146.474 255.71C145.838 255.072 145.082 254.566 144.249 254.219C143.416 253.872 142.522 253.692 141.619 253.689C140.717 253.685 139.822 253.86 138.987 254.201L50.3943 290.395C49.559 290.737 48.7993 291.238 48.1587 291.872C47.5181 292.506 47.0091 293.259 46.6607 294.088C46.3124 294.918 46.1315 295.808 46.1285 296.707C46.1254 297.606 46.3002 298.497 46.6429 299.329L71.6864 360.121C72.0291 360.953 72.5329 361.71 73.1692 362.348C73.8055 362.986 74.5617 363.493 75.3947 363.84C76.2277 364.187 77.1212 364.367 78.0241 364.37C78.927 364.373 79.8216 364.199 80.657 363.857Z" fill="white"/>
<path d="M147.468 274.516L146.165 275.048L146.254 275.264L147.557 274.732L147.468 274.516Z" fill="#E6E6E6"/>
<path d="M143.623 276.339L140.992 277.414L140.903 277.198L143.534 276.123L143.623 276.339ZM138.361 278.489L135.729 279.564L135.64 279.348L138.271 278.273L138.361 278.489ZM133.098 280.639L130.467 281.714L130.378 281.498L133.009 280.423L133.098 280.639ZM127.835 282.789L125.204 283.864L125.115 283.648L127.746 282.573L127.835 282.789ZM122.573 284.939L119.941 286.014L119.852 285.798L122.484 284.723L122.573 284.939ZM117.31 287.089L114.679 288.164L114.59 287.948L117.221 286.873L117.31 287.089ZM112.048 289.239L109.416 290.314L109.327 290.098L111.959 289.023L112.048 289.239ZM106.785 291.39L104.154 292.465L104.065 292.248L106.696 291.173L106.785 291.39ZM101.522 293.54L98.8911 294.615L98.8021 294.398L101.433 293.323L101.522 293.54ZM96.2598 295.69L93.6285 296.765L93.5395 296.548L96.1707 295.473L96.2598 295.69ZM90.9972 297.84L88.3659 298.915L88.2769 298.698L90.9081 297.623L90.9972 297.84ZM85.7346 299.99L83.1033 301.065L83.0143 300.849L85.6456 299.774L85.7346 299.99ZM80.472 302.14L77.8407 303.215L77.7517 302.999L80.383 301.924L80.472 302.14ZM75.2094 304.29L72.5781 305.365L72.489 305.149L75.1204 304.074L75.2094 304.29ZM69.9468 306.44L67.3156 307.515L67.2265 307.299L69.8578 306.224L69.9468 306.44ZM64.6842 308.59L62.0529 309.665L61.9639 309.449L64.5952 308.374L64.6842 308.59Z" fill="#E6E6E6"/>
<path d="M59.3325 310.524L58.03 311.056L58.1191 311.272L59.4216 310.74L59.3325 310.524Z" fill="#E6E6E6"/>
<path d="M112.985 312.093L111.682 312.625L111.771 312.841L113.074 312.309L112.985 312.093Z" fill="#E6E6E6"/>
<path d="M109.179 313.9L106.587 314.959L106.498 314.743L109.09 313.684L109.179 313.9ZM103.995 316.018L101.403 317.077L101.314 316.861L103.906 315.802L103.995 316.018ZM98.8104 318.136L96.2182 319.196L96.1292 318.979L98.7214 317.92L98.8104 318.136ZM93.626 320.255L91.0338 321.314L90.9447 321.097L93.5369 320.038L93.626 320.255ZM88.4416 322.373L85.8493 323.432L85.7603 323.216L88.3525 322.157L88.4416 322.373ZM83.2571 324.491L80.6649 325.55L80.5759 325.334L83.1681 324.275L83.2571 324.491ZM78.0727 326.609L75.4805 327.668L75.3914 327.452L77.9837 326.393L78.0727 326.609ZM72.8883 328.727L70.2961 329.786L70.207 329.57L72.7992 328.511L72.8883 328.727Z" fill="#E6E6E6"/>
<path d="M67.6147 330.629L66.3123 331.161L66.4013 331.377L67.7038 330.845L67.6147 330.629Z" fill="#E6E6E6"/>
<path d="M91.5049 331.982L90.2024 332.514L90.2915 332.73L91.5939 332.198L91.5049 331.982Z" fill="#E6E6E6"/>
<path d="M87.6245 333.819L84.9575 334.909L84.8685 334.693L87.5355 333.603L87.6245 333.819ZM82.2905 335.999L79.6235 337.088L79.5344 336.872L82.2014 335.782L82.2905 335.999ZM76.9565 338.178L74.2895 339.267L74.2004 339.051L76.8674 337.962L76.9565 338.178Z" fill="#E6E6E6"/>
<path d="M71.5335 340.141L70.231 340.673L70.32 340.889L71.6225 340.357L71.5335 340.141Z" fill="#E6E6E6"/>
<path d="M98.1919 348.214L96.8894 348.747L96.9785 348.963L98.281 348.431L98.1919 348.214Z" fill="#E6E6E6"/>
<path d="M94.3115 350.052L91.6445 351.142L91.5555 350.926L94.2225 349.836L94.3115 350.052ZM88.9775 352.231L86.3105 353.321L86.2214 353.105L88.8884 352.015L88.9775 352.231ZM83.6435 354.411L80.9765 355.5L80.8875 355.284L83.5544 354.194L83.6435 354.411Z" fill="#E6E6E6"/>
<path d="M78.2205 356.374L76.918 356.906L77.007 357.122L78.3095 356.59L78.2205 356.374Z" fill="#E6E6E6"/>
<path d="M84.4187 354.288L159.495 323.615C161.312 322.87 162.758 321.438 163.516 319.633C164.274 317.828 164.282 315.797 163.538 313.986L148.369 277.164L148.223 277.229L129.799 321.099L116.135 315.41C115.883 315.304 115.609 315.257 115.336 315.274C115.063 315.291 114.798 315.371 114.561 315.507C114.205 315.721 113.93 316.045 113.778 316.429L104.122 339.418L94.1316 335.26C93.916 335.17 93.6848 335.123 93.4511 335.122C93.2174 335.121 92.9858 335.166 92.7696 335.255C92.5534 335.343 92.3568 335.473 92.191 335.637C92.0252 335.801 91.8935 335.996 91.8034 336.211C91.7395 336.367 85.5794 351.418 84.4187 354.288Z" fill="#00A4E4"/>
<path d="M84.1876 354.634L83.9712 354.544L91.6966 336.147C91.9011 335.662 92.2907 335.277 92.7799 335.077C93.2692 334.877 93.818 334.878 94.306 335.081L104.099 339.16L113.7 316.297C113.904 315.812 114.294 315.427 114.783 315.227C115.272 315.027 115.821 315.029 116.309 315.231L129.776 320.84L148.295 276.741L148.511 276.831L129.902 321.145L116.219 315.447C116.006 315.358 115.777 315.312 115.546 315.311C115.315 315.31 115.086 315.355 114.872 315.442C114.658 315.53 114.464 315.658 114.3 315.82C114.136 315.982 114.005 316.175 113.916 316.387L104.225 339.465L94.2155 335.297C93.7849 335.118 93.3006 335.117 92.869 335.293C92.4374 335.469 92.0936 335.809 91.9131 336.237L84.1876 354.634Z" fill="#00A4E4"/>
<path d="M91.5495 333.725C92.4566 333.725 93.1919 332.993 93.1919 332.09C93.1919 331.186 92.4566 330.454 91.5495 330.454C90.6423 330.454 89.907 331.186 89.907 332.09C89.907 332.993 90.6423 333.725 91.5495 333.725Z" fill="#3F3D56"/>
<path d="M113.029 313.837C113.937 313.837 114.672 313.104 114.672 312.201C114.672 311.298 113.937 310.565 113.029 310.565C112.122 310.565 111.387 311.298 111.387 312.201C111.387 313.104 112.122 313.837 113.029 313.837Z" fill="#3F3D56"/>
<path d="M146.476 276.202C147.383 276.202 148.119 275.469 148.119 274.566C148.119 273.663 147.383 272.93 146.476 272.93C145.569 272.93 144.834 273.663 144.834 274.566C144.834 275.469 145.569 276.202 146.476 276.202Z" fill="#3F3D56"/>
<path d="M54.5426 330.234C55.3964 329.81 56.1467 329.206 56.7406 328.463C57.3345 327.72 57.7575 326.856 57.98 325.932C58.2024 325.009 58.2187 324.048 58.0279 323.117C57.8371 322.187 57.4437 321.309 56.8754 320.546L61.7535 273.049H51.2114L47.3346 319.428C46.1111 320.463 45.3116 321.91 45.0876 323.493C44.8636 325.077 45.2306 326.687 46.119 328.019C47.0075 329.351 48.3557 330.312 49.9083 330.72C51.4608 331.128 53.1097 330.955 54.5426 330.234Z" fill="#FFB8B8"/>
<path d="M64.2222 246.836C72.4595 246.836 79.1372 240.186 79.1372 231.983C79.1372 223.78 72.4595 217.129 64.2222 217.129C55.9848 217.129 49.3071 223.78 49.3071 231.983C49.3071 240.186 55.9848 246.836 64.2222 246.836Z" fill="#FFB8B8"/>
<path d="M67.0302 300.71C66.4332 300.71 65.8527 300.515 65.3778 300.154C64.9029 299.794 64.5599 299.288 64.4013 298.715C63.2064 294.391 60.0974 287.081 55.161 276.986C54.0471 274.704 53.4303 272.214 53.351 269.678C53.2718 267.142 53.7318 264.618 54.7009 262.271C55.6701 259.925 57.1265 257.809 58.9745 256.062C60.8226 254.316 63.0206 252.978 65.4243 252.137C67.7022 251.336 70.1183 250.998 72.5296 251.143C74.9409 251.288 77.2985 251.914 79.4628 252.982C81.6272 254.051 83.5544 255.541 85.1303 257.364C86.7063 259.187 87.8991 261.307 88.6381 263.597C92.4643 275.544 92.2796 288.34 92.0225 293.287C91.9906 293.883 91.7635 294.452 91.3759 294.907C90.9882 295.362 90.4616 295.677 89.8765 295.806L67.6163 300.647C67.4238 300.689 67.2273 300.71 67.0302 300.71Z" fill="#00A4E4"/>
<path d="M88.5867 441.756H96.0313L99.5733 413.158L88.5854 413.159L88.5867 441.756Z" fill="#FFB8B8"/>
<path d="M110.39 448.64L86.9915 448.641L86.9911 439.638L101.349 439.637C102.536 439.637 103.712 439.87 104.809 440.323C105.906 440.775 106.902 441.438 107.742 442.274C108.581 443.11 109.247 444.102 109.702 445.195C110.156 446.287 110.39 447.458 110.39 448.64Z" fill="#2F2E41"/>
<path d="M14.1409 432.148L20.6652 435.719L37.6042 412.359L27.976 407.087L14.1409 432.148Z" fill="#FFB8B8"/>
<path d="M29.9165 448.641L9.41255 437.415L13.7679 429.526L26.3498 436.414C28.4509 437.565 30.007 439.499 30.6759 441.792C31.3448 444.085 31.0716 446.549 29.9165 448.641Z" fill="#2F2E41"/>
<path d="M88.2388 425.883C87.5754 425.883 86.9348 425.642 86.4367 425.205C85.9385 424.769 85.6168 424.167 85.5314 423.512L76.2207 352.061C76.1795 351.745 76.0392 351.45 75.8196 351.218C75.6 350.986 75.3125 350.83 74.9981 350.77C74.6837 350.711 74.3585 350.752 74.0689 350.887C73.7793 351.023 73.5402 351.246 73.3857 351.526L34.5823 421.635C34.2621 422.208 33.7463 422.647 33.1286 422.872C32.5109 423.098 31.8324 423.096 31.2164 422.865L22.7584 419.656C22.4182 419.527 22.1073 419.332 21.844 419.081C21.5807 418.831 21.3703 418.531 21.2252 418.198C21.08 417.866 21.003 417.508 20.9987 417.145C20.9944 416.783 21.0629 416.423 21.2002 416.087L48.0803 350.328C48.1484 350.161 48.1945 349.986 48.2176 349.807C51.8583 321.744 61.1217 307.473 63.8739 303.768C64.075 303.496 64.2073 303.179 64.2597 302.845C64.3121 302.511 64.2831 302.17 64.1751 301.849L63.7967 300.719C63.6456 300.27 63.6146 299.79 63.7068 299.326C63.7991 298.862 64.0113 298.43 64.3226 298.072C74.24 286.823 91.5257 292.961 91.6992 293.024L91.7858 293.056L91.84 293.13C111.222 319.602 104.056 405.581 102.423 422.548C102.362 423.185 102.076 423.781 101.617 424.229C101.157 424.677 100.554 424.949 99.9123 424.997L88.451 425.876C88.3798 425.881 88.3091 425.883 88.2388 425.883Z" fill="#2F2E41"/>
<path d="M122.206 249.236C122.132 249.563 122.083 249.894 122.061 250.228L95.9745 265.215L89.6339 261.58L82.8743 270.393L93.4713 277.915C94.3273 278.522 95.3583 278.837 96.4092 278.811C97.4602 278.786 98.4745 278.422 99.2999 277.773L126.2 256.639C127.414 257.087 128.736 257.156 129.99 256.837C131.244 256.518 132.371 255.826 133.221 254.854C134.071 253.881 134.603 252.674 134.747 251.393C134.892 250.112 134.641 248.818 134.028 247.682C133.416 246.546 132.47 245.623 131.318 245.036C130.166 244.448 128.861 244.224 127.578 244.393C126.295 244.561 125.093 245.115 124.134 245.98C123.174 246.846 122.502 247.981 122.206 249.236Z" fill="#FFB8B8"/>
<path d="M95.1023 265.925L86.6712 276.807C86.4313 277.117 86.1272 277.371 85.7796 277.553C85.4321 277.735 85.0492 277.841 84.6571 277.862C84.265 277.884 83.8728 277.821 83.5074 277.677C83.142 277.534 82.8118 277.314 82.5394 277.033L72.9948 267.162C71.4111 265.931 70.3823 264.125 70.1339 262.139C69.8856 260.154 70.438 258.151 71.67 256.57C72.902 254.99 74.7131 253.96 76.7062 253.708C78.6992 253.455 80.7116 253.999 82.3021 255.222L94.2731 261.888C94.6158 262.079 94.9131 262.341 95.1449 262.657C95.3766 262.973 95.5373 263.334 95.616 263.718C95.6947 264.101 95.6895 264.496 95.6008 264.877C95.5122 265.258 95.3421 265.616 95.1023 265.925Z" fill="#00A4E4"/>
<path d="M62.4246 284.831L48.8426 282.389C48.4561 282.32 48.0893 282.168 47.767 281.945C47.4447 281.721 47.1745 281.431 46.9749 281.094C46.7752 280.758 46.6509 280.382 46.6102 279.993C46.5695 279.604 46.6135 279.211 46.7391 278.84L51.1421 265.858C51.5102 263.891 52.6466 262.149 54.3021 261.015C55.9576 259.881 57.9971 259.448 59.9733 259.809C61.9496 260.17 63.7013 261.297 64.8443 262.943C65.9874 264.588 66.4285 266.618 66.071 268.587L65.6414 282.239C65.629 282.63 65.5321 283.014 65.3574 283.364C65.1827 283.714 64.9342 284.023 64.629 284.269C64.3237 284.515 63.9687 284.692 63.5883 284.79C63.2079 284.887 62.811 284.901 62.4246 284.831Z" fill="#FF6584"/>
<path d="M66.5828 233.566C70.4163 236.179 75.4497 238.865 79.3651 236.082C80.5898 235.154 81.4795 233.855 81.901 232.38C82.3225 230.906 82.2532 229.335 81.7034 227.903C79.8286 222.564 74.6777 220.214 69.7521 218.412C63.3489 216.07 56.3767 214.206 49.7663 215.884C43.156 217.561 37.314 223.935 38.5073 230.623C39.4669 236.002 44.5617 240.478 43.8384 245.893C43.1105 251.343 36.9558 254.212 31.5222 255.186C26.0886 256.16 20.0082 256.473 16.1033 260.36C11.1218 265.318 12.3658 274.181 17.0531 279.416C21.7405 284.65 28.8139 287.023 35.6681 288.637C44.7495 290.774 54.5717 291.897 63.1967 288.35C71.8217 284.803 78.5336 275.254 76.0351 266.301C74.9797 262.519 72.4935 259.322 70.0908 256.211C67.6881 253.099 65.2551 249.845 64.3386 246.027C63.5748 242.846 64.1401 239.152 66.2586 236.766C66.644 236.348 66.8865 235.819 66.9513 235.256C67.0162 234.692 66.9 234.123 66.6196 233.629L66.5828 233.566Z" fill="#2F2E41"/>
<path d="M123.43 449H0.646231C0.47484 449 0.310468 448.932 0.189276 448.812C0.0680844 448.691 0 448.527 0 448.356C0 448.186 0.0680844 448.022 0.189276 447.901C0.310468 447.781 0.47484 447.713 0.646231 447.713H123.43C123.602 447.713 123.766 447.781 123.887 447.901C124.008 448.022 124.076 448.186 124.076 448.356C124.076 448.527 124.008 448.691 123.887 448.812C123.766 448.932 123.602 449 123.43 449Z" fill="#CCCCCC"/>
</g>
<defs>
<clipPath id="clip0_32_389">
<rect width="643" height="449" fill="white"/>
</clipPath>
</defs>
</svg>
